<svg xmlns="http://www.w3.org/2000/svg" viewBox="0 0 700 800">
<rect width="100%" height="100%" fill="white" />
<line x1="0" y1="0" x2="0" y2="800" stroke="#eee" stroke-width="0.5" />
<line x1="50" y1="0" x2="50" y2="800" stroke="#eee" stroke-width="0.5" />
<line x1="100" y1="0" x2="100" y2="800" stroke="#eee" stroke-width="0.5" />
<line x1="150" y1="0" x2="150" y2="800" stroke="#eee" stroke-width="0.5" />
<line x1="200" y1="0" x2="200" y2="800" stroke="#eee" stroke-width="0.5" />
<line x1="250" y1="0" x2="250" y2="800" stroke="#eee" stroke-width="0.5" />
<line x1="300" y1="0" x2="300" y2="800" stroke="#eee" stroke-width="0.5" />
<line x1="350" y1="0" x2="350" y2="800" stroke="#eee" stroke-width="0.5" />
<line x1="400" y1="0" x2="400" y2="800" stroke="#eee" stroke-width="0.5" />
<line x1="450" y1="0" x2="450" y2="800" stroke="#eee" stroke-width="0.5" />
<line x1="500" y1="0" x2="500" y2="800" stroke="#eee" stroke-width="0.5" />
<line x1="550" y1="0" x2="550" y2="800" stroke="#eee" stroke-width="0.5" />
<line x1="600" y1="0" x2="600" y2="800" stroke="#eee" stroke-width="0.5" />
<line x1="650" y1="0" x2="650" y2="800" stroke="#eee" stroke-width="0.5" />
<line x1="700" y1="0" x2="700" y2="800" stroke="#eee" stroke-width="0.5" />
<line x1="0" y1="0" x2="700" y2="0" stroke="#eee" stroke-width="0.5" />
<line x1="0" y1="50" x2="700" y2="50" stroke="#eee" stroke-width="0.5" />
<line x1="0" y1="100" x2="700" y2="100" stroke="#eee" stroke-width="0.5" />
<line x1="0" y1="150" x2="700" y2="150" stroke="#eee" stroke-width="0.5" />
<line x1="0" y1="200" x2="700" y2="200" stroke="#eee" stroke-width="0.5" />
<line x1="0" y1="250" x2="700" y2="250" stroke="#eee" stroke-width="0.5" />
<line x1="0" y1="300" x2="700" y2="300" stroke="#eee" stroke-width="0.5" />
<line x1="0" y1="350" x2="700" y2="350" stroke="#eee" stroke-width="0.5" />
<line x1="0" y1="400" x2="700" y2="400" stroke="#eee" stroke-width="0.5" />
<line x1="0" y1="450" x2="700" y2="450" stroke="#eee" stroke-width="0.5" />
<line x1="0" y1="500" x2="700" y2="500" stroke="#eee" stroke-width="0.5" />
<line x1="0" y1="550" x2="700" y2="550" stroke="#eee" stroke-width="0.5" />
<line x1="0" y1="600" x2="700" y2="600" stroke="#eee" stroke-width="0.5" />
<line x1="0" y1="650" x2="700" y2="650" stroke="#eee" stroke-width="0.5" />
<line x1="0" y1="700" x2="700" y2="700" stroke="#eee" stroke-width="0.5" />
<line x1="0" y1="750" x2="700" y2="750" stroke="#eee" stroke-width="0.5" />
<line x1="0" y1="800" x2="700" y2="800" stroke="#eee" stroke-width="0.5" />
<text x="20" y="22" fill="#333" font-size="11" font-family="Arial,sans-serif" text-anchor="start">1. Uniform t (red) vs arc-length spacing (green)</text> 
<path d="M60 300 C 160 100 400 100 580 300" stroke="#ccc" stroke-width="2" fill="none"/>
<circle cx="60" cy="300" r="5" fill="#F44336"/> 
<circle cx="60" cy="300" r="5" fill="#4CAF50"/> 
<circle cx="87.8009" cy="254.167" r="5" fill="#F44336"/> 
<circle cx="86.9256" cy="255.369" r="5" fill="#4CAF50"/> 
<circle cx="120.741" cy="216.667" r="5" fill="#F44336"/> 
<circle cx="121.259" cy="216.178" r="5" fill="#4CAF50"/> 
<circle cx="158.125" cy="187.5" r="5" fill="#F44336"/> 
<circle cx="162.72" cy="184.655" r="5" fill="#4CAF50"/> 
<circle cx="199.259" cy="166.667" r="5" fill="#F44336"/> 
<circle cx="209.981" cy="162.783" r="5" fill="#4CAF50"/> 
<circle cx="243.449" cy="154.167" r="5" fill="#F44336"/> 
<circle cx="260.851" cy="151.607" r="5" fill="#4CAF50"/> 
<circle cx="290" cy="150" r="5" fill="#F44336"/> 
<circle cx="312.946" cy="150.957" r="5" fill="#4CAF50"/> 
<circle cx="338.218" cy="154.167" r="5" fill="#F44336"/> 
<circle cx="364.312" cy="159.78" r="5" fill="#4CAF50"/> 
<circle cx="387.407" cy="166.667" r="5" fill="#F44336"/> 
<circle cx="413.633" cy="176.67" r="5" fill="#4CAF50"/> 
<circle cx="436.875" cy="187.5" r="5" fill="#F44336"/> 
<circle cx="460.146" cy="200.242" r="5" fill="#4CAF50"/> 
<circle cx="485.926" cy="216.667" r="5" fill="#F44336"/> 
<circle cx="503.46" cy="229.291" r="5" fill="#4CAF50"/> 
<circle cx="533.866" cy="254.167" r="5" fill="#F44336"/> 
<circle cx="543.419" cy="262.814" r="5" fill="#4CAF50"/> 
<circle cx="580" cy="300" r="5" fill="#F44336"/> 
<circle cx="580" cy="300" r="5" fill="#4CAF50"/> 
<text x="20" y="422" fill="#333" font-size="11" font-family="Arial,sans-serif" text-anchor="start">2. Table (blue) vs Newton-Raphson (orange) — should overlap</text> 
<path d="M60 600 C 60 400 580 400 580 600" stroke="#ccc" stroke-width="2" fill="none"/>
<circle cx="60" cy="600" r="7" fill="#FF9800"/> 
<circle cx="60" cy="600" r="4" fill="#2196F3"/> 
<circle cx="73.8322" cy="547.263" r="7" fill="#FF9800"/> 
<circle cx="73.8314" cy="547.264" r="4" fill="#2196F3"/> 
<circle cx="110.541" cy="506.618" r="7" fill="#FF9800"/> 
<circle cx="110.535" cy="506.623" r="4" fill="#2196F3"/> 
<circle cx="158.395" cy="479.496" r="7" fill="#FF9800"/> 
<circle cx="158.389" cy="479.498" r="4" fill="#2196F3"/> 
<circle cx="210.773" cy="462.444" r="7" fill="#FF9800"/> 
<circle cx="210.767" cy="462.446" r="4" fill="#2196F3"/> 
<circle cx="265.071" cy="453.016" r="7" fill="#FF9800"/> 
<circle cx="265.07" cy="453.016" r="4" fill="#2196F3"/> 
<circle cx="320.108" cy="450" r="7" fill="#FF9800"/> 
<circle cx="320.108" cy="450" r="4" fill="#2196F3"/> 
<circle cx="375.143" cy="453.04" r="7" fill="#FF9800"/> 
<circle cx="375.144" cy="453.04" r="4" fill="#2196F3"/> 
<circle cx="429.434" cy="462.495" r="7" fill="#FF9800"/> 
<circle cx="429.441" cy="462.496" r="4" fill="#2196F3"/> 
<circle cx="481.795" cy="479.576" r="7" fill="#FF9800"/> 
<circle cx="481.801" cy="479.579" r="4" fill="#2196F3"/> 
<circle cx="529.608" cy="506.732" r="7" fill="#FF9800"/> 
<circle cx="529.614" cy="506.736" r="4" fill="#2196F3"/> 
<circle cx="566.238" cy="547.388" r="7" fill="#FF9800"/> 
<circle cx="566.239" cy="547.389" r="4" fill="#2196F3"/> 
<circle cx="580" cy="600" r="7" fill="#FF9800"/> 
<circle cx="580" cy="600" r="4" fill="#2196F3"/> 
<text x="20" y="722" fill="#333" font-size="11" font-family="Arial,sans-serif" text-anchor="start">3. arcLengthAt — labeled t values along curve</text> 
<path d="M60 780 C 200 680 450 680 620 780" stroke="#ccc" stroke-width="2" fill="none"/>
<circle cx="60" cy="780" r="5" fill="#9C27B0"/> 
<text x="66" y="772" fill="#9C27B0" font-size="9" font-family="Arial,sans-serif" text-anchor="start">t=0 L=0.0</text> 
<circle cx="182.656" cy="723.75" r="5" fill="#9C27B0"/> 
<text x="188.656" y="715.75" fill="#9C27B0" font-size="9" font-family="Arial,sans-serif" text-anchor="start">t=0.25 L=135.6</text> 
<circle cx="328.75" cy="705" r="5" fill="#9C27B0"/> 
<text x="334.75" y="697" fill="#9C27B0" font-size="9" font-family="Arial,sans-serif" text-anchor="start">t=0.5 L=283.4</text> 
<circle cx="480.469" cy="723.75" r="5" fill="#9C27B0"/> 
<text x="486.469" y="715.75" fill="#9C27B0" font-size="9" font-family="Arial,sans-serif" text-anchor="start">t=0.75 L=436.6</text> 
<circle cx="620" cy="780" r="5" fill="#9C27B0"/> 
<text x="626" y="772" fill="#9C27B0" font-size="9" font-family="Arial,sans-serif" text-anchor="start">t=1 L=587.6</text> 
</svg>
