<svg xmlns="http://www.w3.org/2000/svg" viewBox="0 0 600 800">
<rect width="100%" height="100%" fill="white" />
<line x1="0" y1="0" x2="0" y2="800" stroke="#f5f5f5" stroke-width="0.5" />
<line x1="50" y1="0" x2="50" y2="800" stroke="#f5f5f5" stroke-width="0.5" />
<line x1="100" y1="0" x2="100" y2="800" stroke="#f5f5f5" stroke-width="0.5" />
<line x1="150" y1="0" x2="150" y2="800" stroke="#f5f5f5" stroke-width="0.5" />
<line x1="200" y1="0" x2="200" y2="800" stroke="#f5f5f5" stroke-width="0.5" />
<line x1="250" y1="0" x2="250" y2="800" stroke="#f5f5f5" stroke-width="0.5" />
<line x1="300" y1="0" x2="300" y2="800" stroke="#f5f5f5" stroke-width="0.5" />
<line x1="350" y1="0" x2="350" y2="800" stroke="#f5f5f5" stroke-width="0.5" />
<line x1="400" y1="0" x2="400" y2="800" stroke="#f5f5f5" stroke-width="0.5" />
<line x1="450" y1="0" x2="450" y2="800" stroke="#f5f5f5" stroke-width="0.5" />
<line x1="500" y1="0" x2="500" y2="800" stroke="#f5f5f5" stroke-width="0.5" />
<line x1="550" y1="0" x2="550" y2="800" stroke="#f5f5f5" stroke-width="0.5" />
<line x1="600" y1="0" x2="600" y2="800" stroke="#f5f5f5" stroke-width="0.5" />
<line x1="0" y1="0" x2="600" y2="0" stroke="#f5f5f5" stroke-width="0.5" />
<line x1="0" y1="50" x2="600" y2="50" stroke="#f5f5f5" stroke-width="0.5" />
<line x1="0" y1="100" x2="600" y2="100" stroke="#f5f5f5" stroke-width="0.5" />
<line x1="0" y1="150" x2="600" y2="150" stroke="#f5f5f5" stroke-width="0.5" />
<line x1="0" y1="200" x2="600" y2="200" stroke="#f5f5f5" stroke-width="0.5" />
<line x1="0" y1="250" x2="600" y2="250" stroke="#f5f5f5" stroke-width="0.5" />
<line x1="0" y1="300" x2="600" y2="300" stroke="#f5f5f5" stroke-width="0.5" />
<line x1="0" y1="350" x2="600" y2="350" stroke="#f5f5f5" stroke-width="0.5" />
<line x1="0" y1="400" x2="600" y2="400" stroke="#f5f5f5" stroke-width="0.5" />
<line x1="0" y1="450" x2="600" y2="450" stroke="#f5f5f5" stroke-width="0.5" />
<line x1="0" y1="500" x2="600" y2="500" stroke="#f5f5f5" stroke-width="0.5" />
<line x1="0" y1="550" x2="600" y2="550" stroke="#f5f5f5" stroke-width="0.5" />
<line x1="0" y1="600" x2="600" y2="600" stroke="#f5f5f5" stroke-width="0.5" />
<line x1="0" y1="650" x2="600" y2="650" stroke="#f5f5f5" stroke-width="0.5" />
<line x1="0" y1="700" x2="600" y2="700" stroke="#f5f5f5" stroke-width="0.5" />
<line x1="0" y1="750" x2="600" y2="750" stroke="#f5f5f5" stroke-width="0.5" />
<line x1="0" y1="800" x2="600" y2="800" stroke="#f5f5f5" stroke-width="0.5" />
<!-- === Basic Curve with Debug Info === -->
<line x1="50" y1="150" x2="100" y2="30" stroke="#aaa" stroke-width="4" />
<line x1="450" y1="150" x2="300" y2="300" stroke="#aaa" stroke-width="4" />
<path d="M50 150 C 100 30 300 300 450 150" stroke="black" stroke-width="2" fill="none"/>
<circle cx="50" cy="150" r="6" fill="#2196F3"/> 
<circle cx="450" cy="150" r="6" fill="#2196F3"/> 
<circle cx="100" cy="30" r="4" fill="#F44336"/> 
<circle cx="300" cy="300" r="4" fill="#F44336"/> 
<text x="50" y="20" fill="black" font-size="14" font-family="Arial,sans-serif" text-anchor="start">Basic cubic bezier with control points</text> 
<!-- === Sample Points === -->
<path d="M50 350 C 100 230 300 500 450 350" stroke="#ccc" stroke-width="3" fill="none"/>
<circle cx="58.6" cy="334.824" r="3" fill="#4CAF50"/> 
<circle cx="69.3" cy="324.89" r="3" fill="#4CAF50"/> 
<circle cx="81.95" cy="319.591" r="3" fill="#4CAF50"/> 
<circle cx="96.4" cy="318.32" r="3" fill="#4CAF50"/> 
<circle cx="112.5" cy="320.469" r="3" fill="#4CAF50"/> 
<circle cx="130.1" cy="325.43" r="3" fill="#4CAF50"/> 
<circle cx="149.05" cy="332.596" r="3" fill="#4CAF50"/> 
<circle cx="169.2" cy="341.36" r="3" fill="#4CAF50"/> 
<circle cx="190.4" cy="351.114" r="3" fill="#4CAF50"/> 
<circle cx="212.5" cy="361.25" r="3" fill="#4CAF50"/> 
<circle cx="235.35" cy="371.161" r="3" fill="#4CAF50"/> 
<circle cx="258.8" cy="380.24" r="3" fill="#4CAF50"/> 
<circle cx="282.7" cy="387.879" r="3" fill="#4CAF50"/> 
<circle cx="306.9" cy="393.47" r="3" fill="#4CAF50"/> 
<circle cx="331.25" cy="396.406" r="3" fill="#4CAF50"/> 
<circle cx="355.6" cy="396.08" r="3" fill="#4CAF50"/> 
<circle cx="379.8" cy="391.884" r="3" fill="#4CAF50"/> 
<circle cx="403.7" cy="383.21" r="3" fill="#4CAF50"/> 
<circle cx="427.15" cy="369.451" r="3" fill="#4CAF50"/> 
<circle cx="450" cy="350" r="3" fill="#4CAF50"/> 
<text x="50" y="220" fill="black" font-size="14" font-family="Arial,sans-serif" text-anchor="start">Sample points along curve (t = 0 to 1)</text> 
<!-- === Tangent Vectors === -->
<path d="M50 550 C 100 430 300 700 450 550" stroke="#ccc" stroke-width="3" fill="none"/>
<line x1="50" y1="550" x2="65.3846" y2="513.077" stroke="#9C27B0" stroke-width="1" />
<circle cx="50" cy="550" r="3" fill="#9C27B0"/> 
<line x1="75.3906" y1="521.699" x2="112.885" y2="507.763" stroke="#9C27B0" stroke-width="1" />
<circle cx="75.3906" cy="521.699" r="3" fill="#9C27B0"/> 
<line x1="112.5" y1="520.469" x2="151.181" y2="530.658" stroke="#9C27B0" stroke-width="1" />
<circle cx="112.5" cy="520.469" r="3" fill="#9C27B0"/> 
<line x1="158.984" y1="536.816" x2="195.185" y2="553.832" stroke="#9C27B0" stroke-width="1" />
<circle cx="158.984" cy="536.816" r="3" fill="#9C27B0"/> 
<line x1="212.5" y1="561.25" x2="248.361" y2="578.97" stroke="#9C27B0" stroke-width="1" />
<circle cx="212.5" cy="561.25" r="3" fill="#9C27B0"/> 
<line x1="270.703" y1="584.277" x2="307.493" y2="599.977" stroke="#9C27B0" stroke-width="1" />
<circle cx="270.703" cy="584.277" r="3" fill="#9C27B0"/> 
<line x1="331.25" y1="596.406" x2="369.464" y2="608.225" stroke="#9C27B0" stroke-width="1" />
<circle cx="331.25" cy="596.406" r="3" fill="#9C27B0"/> 
<line x1="391.797" y1="588.145" x2="431.276" y2="594.581" stroke="#9C27B0" stroke-width="1" />
<circle cx="391.797" cy="588.145" r="3" fill="#9C27B0"/> 
<line x1="450" y1="550" x2="490" y2="550" stroke="#9C27B0" stroke-width="1" />
<circle cx="450" cy="550" r="3" fill="#9C27B0"/> 
<text x="50" y="420" fill="black" font-size="14" font-family="Arial,sans-serif" text-anchor="start">Tangent vectors</text> 
<!-- === de Casteljau Subdivision === -->
<line x1="50" y1="750" x2="100" y2="630" stroke="#ccc" stroke-width="1" />
<line x1="100" y1="630" x2="300" y2="900" stroke="#ccc" stroke-width="1" />
<line x1="300" y1="900" x2="450" y2="750" stroke="#ccc" stroke-width="1" />
<line x1="67.5" y1="708" x2="170" y2="724.5" stroke="#aaa" stroke-width="1" />
<line x1="170" y1="724.5" x2="352.5" y2="847.5" stroke="#aaa" stroke-width="1" />
<circle cx="67.5" cy="708" r="4" fill="#FF9800"/> 
<circle cx="170" cy="724.5" r="4" fill="#FF9800"/> 
<circle cx="352.5" cy="847.5" r="4" fill="#FF9800"/> 
<line x1="103.375" y1="713.775" x2="233.875" y2="767.55" stroke="#888" stroke-width="1" />
<circle cx="103.375" cy="713.775" r="4" fill="#E91E63"/> 
<circle cx="233.875" cy="767.55" r="4" fill="#E91E63"/> 
<circle cx="149.05" cy="732.596" r="6" fill="#4CAF50"/> 
<path d="M50 750 C 100 630 300 900 450 750" stroke="#2196F3" stroke-width="2" fill="none"/>
<circle cx="50" cy="750" r="5" fill="#2196F3"/> 
<circle cx="100" cy="630" r="4" fill="#F44336"/> 
<circle cx="300" cy="900" r="4" fill="#F44336"/> 
<circle cx="450" cy="750" r="5" fill="#2196F3"/> 
<text x="50" y="620" fill="black" font-size="14" font-family="Arial,sans-serif" text-anchor="start">de Casteljau at t=0.35</text> 
</svg>
