<svg xmlns="http://www.w3.org/2000/svg" viewBox="0 0 300 300">
<rect width="100%" height="100%" fill="white" />
<path d="M 100 70 C 144.184 70 180 105.816 180 150 C 180 194.184 144.184 230 100 230 C 55.816 230 20 194.184 20 150 C 20 105.816 55.816 70 100 70 Z" stroke="#2196F3" stroke-width="2" fill="rgba(33,150,243,0.08)" fill-rule="none"/>
<path d="M 200 70 C 244.184 70 280 105.816 280 150 C 280 194.184 244.184 230 200 230 C 155.816 230 120 194.184 120 150 C 120 105.816 155.816 70 200 70 Z" stroke="#F44336" stroke-width="2" fill="rgba(244,67,54,0.08)" fill-rule="none"/>
<text x="20" y="10" fill="#2196F3" font-size="12" font-family="Arial,sans-serif" text-anchor="start">Blue - segments from Path A</text> 
<text x="20" y="30" fill="#F44336" font-size="12" font-family="Arial,sans-serif" text-anchor="start">Red - segments from Path B</text> 
<text x="20" y="50" fill="#4CAF50" font-size="12" font-family="Arial,sans-serif" text-anchor="start">Green - Intersection point between Path A and B</text> 
<path d="M100 70 C 118.919 70 136.304 76.5668 150 87.5455" stroke="#4CAF50" stroke-width="2" fill="none"/>
<circle cx="100" cy="70" r="4" fill="#2196F3"/> 
<circle cx="150" cy="87.5455" r="4" fill="#2196F3"/> 
<path d="M150 87.5455 C 168.289 102.206 180 124.735 180 150" stroke="#4CAF50" stroke-width="2" fill="none"/>
<circle cx="150" cy="87.5455" r="4" fill="#2196F3"/> 
<circle cx="180" cy="150" r="4" fill="#2196F3"/> 
<path d="M180 150 C 180 175.265 168.289 197.794 150 212.455" stroke="#4CAF50" stroke-width="2" fill="none"/>
<circle cx="180" cy="150" r="4" fill="#2196F3"/> 
<circle cx="150" cy="212.455" r="4" fill="#2196F3"/> 
<path d="M150 212.455 C 136.304 223.433 118.919 230 100 230" stroke="#4CAF50" stroke-width="2" fill="none"/>
<circle cx="150" cy="212.455" r="4" fill="#2196F3"/> 
<circle cx="100" cy="230" r="4" fill="#2196F3"/> 
<path d="M100 230 C 55.816 230 20 194.184 20 150" stroke="#4CAF50" stroke-width="2" fill="none"/>
<circle cx="100" cy="230" r="4" fill="#2196F3"/> 
<circle cx="20" cy="150" r="4" fill="#2196F3"/> 
<path d="M20 150 C 20 105.816 55.816 70 100 70" stroke="#4CAF50" stroke-width="2" fill="none"/>
<circle cx="20" cy="150" r="4" fill="#2196F3"/> 
<circle cx="100" cy="70" r="4" fill="#2196F3"/> 
<path d="M200 70 C 244.184 70 280 105.816 280 150" stroke="#4CAF50" stroke-width="2" fill="none"/>
<circle cx="200" cy="70" r="4" fill="#F44336"/> 
<circle cx="280" cy="150" r="4" fill="#F44336"/> 
<path d="M280 150 C 280 194.184 244.184 230 200 230" stroke="#4CAF50" stroke-width="2" fill="none"/>
<circle cx="280" cy="150" r="4" fill="#F44336"/> 
<circle cx="200" cy="230" r="4" fill="#F44336"/> 
<path d="M200 230 C 181.081 230 163.696 223.433 150 212.455" stroke="#4CAF50" stroke-width="2" fill="none"/>
<circle cx="200" cy="230" r="4" fill="#F44336"/> 
<circle cx="150" cy="212.455" r="4" fill="#F44336"/> 
<path d="M150 212.455 C 131.711 197.794 120 175.265 120 150" stroke="#4CAF50" stroke-width="2" fill="none"/>
<circle cx="150" cy="212.455" r="4" fill="#F44336"/> 
<circle cx="120" cy="150" r="4" fill="#F44336"/> 
<path d="M120 150 C 120 124.735 131.711 102.206 150 87.5455" stroke="#4CAF50" stroke-width="2" fill="none"/>
<circle cx="120" cy="150" r="4" fill="#F44336"/> 
<circle cx="150" cy="87.5455" r="4" fill="#F44336"/> 
<path d="M150 87.5455 C 163.696 76.5668 181.081 70 200 70" stroke="#4CAF50" stroke-width="2" fill="none"/>
<circle cx="150" cy="87.5455" r="4" fill="#F44336"/> 
<circle cx="200" cy="70" r="4" fill="#F44336"/> 
<circle cx="150" cy="87.5455" r="4" fill="green"/> 
<circle cx="150" cy="212.455" r="4" fill="green"/> 
</svg>
