<svg xmlns="http://www.w3.org/2000/svg" viewBox="0 0 1000 1500">
<rect width="100%" height="100%" fill="white" />
<line x1="0" y1="0" x2="0" y2="1500" stroke="#eee" stroke-width="0.5" />
<line x1="50" y1="0" x2="50" y2="1500" stroke="#eee" stroke-width="0.5" />
<line x1="100" y1="0" x2="100" y2="1500" stroke="#eee" stroke-width="0.5" />
<line x1="150" y1="0" x2="150" y2="1500" stroke="#eee" stroke-width="0.5" />
<line x1="200" y1="0" x2="200" y2="1500" stroke="#eee" stroke-width="0.5" />
<line x1="250" y1="0" x2="250" y2="1500" stroke="#eee" stroke-width="0.5" />
<line x1="300" y1="0" x2="300" y2="1500" stroke="#eee" stroke-width="0.5" />
<line x1="350" y1="0" x2="350" y2="1500" stroke="#eee" stroke-width="0.5" />
<line x1="400" y1="0" x2="400" y2="1500" stroke="#eee" stroke-width="0.5" />
<line x1="450" y1="0" x2="450" y2="1500" stroke="#eee" stroke-width="0.5" />
<line x1="500" y1="0" x2="500" y2="1500" stroke="#eee" stroke-width="0.5" />
<line x1="550" y1="0" x2="550" y2="1500" stroke="#eee" stroke-width="0.5" />
<line x1="600" y1="0" x2="600" y2="1500" stroke="#eee" stroke-width="0.5" />
<line x1="650" y1="0" x2="650" y2="1500" stroke="#eee" stroke-width="0.5" />
<line x1="700" y1="0" x2="700" y2="1500" stroke="#eee" stroke-width="0.5" />
<line x1="750" y1="0" x2="750" y2="1500" stroke="#eee" stroke-width="0.5" />
<line x1="800" y1="0" x2="800" y2="1500" stroke="#eee" stroke-width="0.5" />
<line x1="850" y1="0" x2="850" y2="1500" stroke="#eee" stroke-width="0.5" />
<line x1="900" y1="0" x2="900" y2="1500" stroke="#eee" stroke-width="0.5" />
<line x1="950" y1="0" x2="950" y2="1500" stroke="#eee" stroke-width="0.5" />
<line x1="1000" y1="0" x2="1000" y2="1500" stroke="#eee" stroke-width="0.5" />
<line x1="0" y1="0" x2="1000" y2="0" stroke="#eee" stroke-width="0.5" />
<line x1="0" y1="50" x2="1000" y2="50" stroke="#eee" stroke-width="0.5" />
<line x1="0" y1="100" x2="1000" y2="100" stroke="#eee" stroke-width="0.5" />
<line x1="0" y1="150" x2="1000" y2="150" stroke="#eee" stroke-width="0.5" />
<line x1="0" y1="200" x2="1000" y2="200" stroke="#eee" stroke-width="0.5" />
<line x1="0" y1="250" x2="1000" y2="250" stroke="#eee" stroke-width="0.5" />
<line x1="0" y1="300" x2="1000" y2="300" stroke="#eee" stroke-width="0.5" />
<line x1="0" y1="350" x2="1000" y2="350" stroke="#eee" stroke-width="0.5" />
<line x1="0" y1="400" x2="1000" y2="400" stroke="#eee" stroke-width="0.5" />
<line x1="0" y1="450" x2="1000" y2="450" stroke="#eee" stroke-width="0.5" />
<line x1="0" y1="500" x2="1000" y2="500" stroke="#eee" stroke-width="0.5" />
<line x1="0" y1="550" x2="1000" y2="550" stroke="#eee" stroke-width="0.5" />
<line x1="0" y1="600" x2="1000" y2="600" stroke="#eee" stroke-width="0.5" />
<line x1="0" y1="650" x2="1000" y2="650" stroke="#eee" stroke-width="0.5" />
<line x1="0" y1="700" x2="1000" y2="700" stroke="#eee" stroke-width="0.5" />
<line x1="0" y1="750" x2="1000" y2="750" stroke="#eee" stroke-width="0.5" />
<line x1="0" y1="800" x2="1000" y2="800" stroke="#eee" stroke-width="0.5" />
<line x1="0" y1="850" x2="1000" y2="850" stroke="#eee" stroke-width="0.5" />
<line x1="0" y1="900" x2="1000" y2="900" stroke="#eee" stroke-width="0.5" />
<line x1="0" y1="950" x2="1000" y2="950" stroke="#eee" stroke-width="0.5" />
<line x1="0" y1="1000" x2="1000" y2="1000" stroke="#eee" stroke-width="0.5" />
<line x1="0" y1="1050" x2="1000" y2="1050" stroke="#eee" stroke-width="0.5" />
<line x1="0" y1="1100" x2="1000" y2="1100" stroke="#eee" stroke-width="0.5" />
<line x1="0" y1="1150" x2="1000" y2="1150" stroke="#eee" stroke-width="0.5" />
<line x1="0" y1="1200" x2="1000" y2="1200" stroke="#eee" stroke-width="0.5" />
<line x1="0" y1="1250" x2="1000" y2="1250" stroke="#eee" stroke-width="0.5" />
<line x1="0" y1="1300" x2="1000" y2="1300" stroke="#eee" stroke-width="0.5" />
<line x1="0" y1="1350" x2="1000" y2="1350" stroke="#eee" stroke-width="0.5" />
<line x1="0" y1="1400" x2="1000" y2="1400" stroke="#eee" stroke-width="0.5" />
<line x1="0" y1="1450" x2="1000" y2="1450" stroke="#eee" stroke-width="0.5" />
<line x1="0" y1="1500" x2="1000" y2="1500" stroke="#eee" stroke-width="0.5" />
<path d="M50 150 C 150 50 300 50 400 150" stroke="#2196F3" stroke-width="2" fill="none"/>
<path d="M50 50 C 150 150 300 150 400 50" stroke="#F44336" stroke-width="2" fill="none"/>
<circle cx="119.152" cy="100" r="6" fill="#4CAF50"/> 
<text x="127.152" y="94" fill="#4CAF50" font-size="9" font-family="Arial,sans-serif" text-anchor="start">t1=0.21 t2=0.21</text> 
<circle cx="330.848" cy="100" r="6" fill="#4CAF50"/> 
<text x="338.848" y="94" fill="#4CAF50" font-size="9" font-family="Arial,sans-serif" text-anchor="start">t1=0.79 t2=0.79</text> 
<text x="50" y="40" fill="#333" font-size="11" font-family="Arial,sans-serif" text-anchor="start">1. X cross — expect 1 intersection</text> 
<path d="M50 480 C 150 400 300 400 450 480" stroke="#2196F3" stroke-width="2" fill="none"/>
<path d="M50 580 C 150 500 300 500 450 580" stroke="#F44336" stroke-width="2" fill="none"/>
<text x="50" y="410" fill="#333" font-size="11" font-family="Arial,sans-serif" text-anchor="start">2. Parallel arches — expect 0 intersections</text> 
<path d="M50 830 C 150 730 300 930 450 830" stroke="#2196F3" stroke-width="2" fill="none"/>
<path d="M50 730 C 150 830 300 730 480 860" stroke="#F44336" stroke-width="2" fill="none"/>
<circle cx="441.557" cy="835.316" r="6" fill="#4CAF50"/> 
<text x="449.557" y="829.316" fill="#4CAF50" font-size="9" font-family="Arial,sans-serif" text-anchor="start">t1=0.98 t2=0.93</text> 
<text x="50" y="720" fill="#333" font-size="11" font-family="Arial,sans-serif" text-anchor="start">3. S-curve vs arch — expect 2 intersections</text> 
<path d="M100 1130 C 200 1030 350 1150 500 1130" stroke="#2196F3" stroke-width="2" fill="none"/>
<path d="M100 1150 C 200 1030 350 1030 500 1150" stroke="#F44336" stroke-width="2" fill="none"/>
<circle cx="162.695" cy="1094.2" r="6" fill="#4CAF50"/> 
<text x="170.695" y="1088.2" fill="#4CAF50" font-size="9" font-family="Arial,sans-serif" text-anchor="start">t1=0.19 t2=0.19</text> 
<circle cx="476.319" cy="1132.05" r="6" fill="#4CAF50"/> 
<text x="484.319" y="1126.05" fill="#4CAF50" font-size="9" font-family="Arial,sans-serif" text-anchor="start">t1=0.95 t2=0.95</text> 
<text x="100" y="1050" fill="#333" font-size="11" font-family="Arial,sans-serif" text-anchor="start">4. Nearly tangent — expect 1 intersection</text> 
</svg>
